<mxfile host="app.diagrams.net" agent="Mozilla/5.0 (Windows NT 10.0; Win64; x64; rv:138.0) Gecko/20100101 Firefox/138.0" version="26.2.14">
  <diagram id="C5RBs43oDa-KdzZeNtuy" name="Page-1">
    <mxGraphModel dx="3804" dy="2698" grid="1" gridSize="10" guides="1" tooltips="1" connect="1" arrows="1" fold="1" page="1" pageScale="1" pageWidth="827" pageHeight="1169" math="0" shadow="0">
      <root>
        <mxCell id="WIyWlLk6GJQsqaUBKTNV-0" />
        <mxCell id="WIyWlLk6GJQsqaUBKTNV-1" parent="WIyWlLk6GJQsqaUBKTNV-0" />
        <mxCell id="-sxbTqITBYYLO2gPrFlr-302" value="" style="rounded=0;whiteSpace=wrap;html=1;fillColor=none;strokeWidth=4;" vertex="1" parent="WIyWlLk6GJQsqaUBKTNV-1">
          <mxGeometry x="-813" y="570" width="1640" height="1280" as="geometry" />
        </mxCell>
        <mxCell id="-sxbTqITBYYLO2gPrFlr-0" value="Start" style="ellipse;whiteSpace=wrap;html=1;" vertex="1" parent="WIyWlLk6GJQsqaUBKTNV-1">
          <mxGeometry x="290" y="-10" width="100" height="70" as="geometry" />
        </mxCell>
        <mxCell id="-sxbTqITBYYLO2gPrFlr-314" style="edgeStyle=orthogonalEdgeStyle;rounded=0;orthogonalLoop=1;jettySize=auto;html=1;exitX=1;exitY=0.75;exitDx=0;exitDy=0;entryX=1;entryY=0.5;entryDx=0;entryDy=0;" edge="1" parent="WIyWlLk6GJQsqaUBKTNV-1" source="-sxbTqITBYYLO2gPrFlr-1" target="-sxbTqITBYYLO2gPrFlr-311">
          <mxGeometry relative="1" as="geometry" />
        </mxCell>
        <mxCell id="-sxbTqITBYYLO2gPrFlr-1" value="&lt;div&gt;Auswahl:&lt;/div&gt;&lt;div&gt;- Neues Spiel&lt;/div&gt;&lt;div&gt;- Spiel Laden&lt;/div&gt;&lt;div&gt;- Highscore anzeigen&lt;/div&gt;" style="rounded=0;whiteSpace=wrap;html=1;" vertex="1" parent="WIyWlLk6GJQsqaUBKTNV-1">
          <mxGeometry x="280" y="120" width="120" height="60" as="geometry" />
        </mxCell>
        <mxCell id="-sxbTqITBYYLO2gPrFlr-3" value="" style="endArrow=classic;html=1;rounded=0;entryX=0.5;entryY=0;entryDx=0;entryDy=0;exitX=0.5;exitY=1;exitDx=0;exitDy=0;" edge="1" parent="WIyWlLk6GJQsqaUBKTNV-1" source="-sxbTqITBYYLO2gPrFlr-0" target="-sxbTqITBYYLO2gPrFlr-1">
          <mxGeometry width="50" height="50" relative="1" as="geometry">
            <mxPoint x="440" y="180" as="sourcePoint" />
            <mxPoint x="390" y="230" as="targetPoint" />
          </mxGeometry>
        </mxCell>
        <mxCell id="-sxbTqITBYYLO2gPrFlr-27" style="edgeStyle=orthogonalEdgeStyle;rounded=0;orthogonalLoop=1;jettySize=auto;html=1;exitX=0.5;exitY=1;exitDx=0;exitDy=0;entryX=0.5;entryY=0;entryDx=0;entryDy=0;" edge="1" parent="WIyWlLk6GJQsqaUBKTNV-1" source="-sxbTqITBYYLO2gPrFlr-4" target="-sxbTqITBYYLO2gPrFlr-25">
          <mxGeometry relative="1" as="geometry" />
        </mxCell>
        <mxCell id="-sxbTqITBYYLO2gPrFlr-66" value="nicht gefunden" style="edgeLabel;html=1;align=center;verticalAlign=middle;resizable=0;points=[];" vertex="1" connectable="0" parent="-sxbTqITBYYLO2gPrFlr-27">
          <mxGeometry x="-0.1494" y="3" relative="1" as="geometry">
            <mxPoint x="37" as="offset" />
          </mxGeometry>
        </mxCell>
        <mxCell id="-sxbTqITBYYLO2gPrFlr-4" value="Spielnummer?" style="rhombus;whiteSpace=wrap;html=1;" vertex="1" parent="WIyWlLk6GJQsqaUBKTNV-1">
          <mxGeometry x="110" y="171.25" width="100" height="97.5" as="geometry" />
        </mxCell>
        <mxCell id="-sxbTqITBYYLO2gPrFlr-6" value="" style="endArrow=classic;html=1;rounded=0;entryX=0.5;entryY=0;entryDx=0;entryDy=0;" edge="1" parent="WIyWlLk6GJQsqaUBKTNV-1" target="-sxbTqITBYYLO2gPrFlr-4">
          <mxGeometry width="50" height="50" relative="1" as="geometry">
            <mxPoint x="280" y="160" as="sourcePoint" />
            <mxPoint x="120" y="170" as="targetPoint" />
            <Array as="points">
              <mxPoint x="220" y="160" />
              <mxPoint x="160" y="160" />
            </Array>
          </mxGeometry>
        </mxCell>
        <mxCell id="-sxbTqITBYYLO2gPrFlr-9" value="Spiel laden" style="edgeLabel;html=1;align=center;verticalAlign=middle;resizable=0;points=[];" vertex="1" connectable="0" parent="-sxbTqITBYYLO2gPrFlr-6">
          <mxGeometry x="-0.4621" y="4" relative="1" as="geometry">
            <mxPoint x="-25" y="7" as="offset" />
          </mxGeometry>
        </mxCell>
        <mxCell id="-sxbTqITBYYLO2gPrFlr-48" style="edgeStyle=orthogonalEdgeStyle;rounded=0;orthogonalLoop=1;jettySize=auto;html=1;exitX=1;exitY=0.5;exitDx=0;exitDy=0;entryX=0.5;entryY=0;entryDx=0;entryDy=0;" edge="1" parent="WIyWlLk6GJQsqaUBKTNV-1" source="-sxbTqITBYYLO2gPrFlr-10" target="-sxbTqITBYYLO2gPrFlr-47">
          <mxGeometry relative="1" as="geometry" />
        </mxCell>
        <mxCell id="-sxbTqITBYYLO2gPrFlr-49" value="1-3" style="edgeLabel;html=1;align=center;verticalAlign=middle;resizable=0;points=[];" vertex="1" connectable="0" parent="-sxbTqITBYYLO2gPrFlr-48">
          <mxGeometry x="-0.0593" y="3" relative="1" as="geometry">
            <mxPoint x="-6" y="-8" as="offset" />
          </mxGeometry>
        </mxCell>
        <mxCell id="-sxbTqITBYYLO2gPrFlr-312" value="" style="edgeStyle=orthogonalEdgeStyle;rounded=0;orthogonalLoop=1;jettySize=auto;html=1;" edge="1" parent="WIyWlLk6GJQsqaUBKTNV-1" source="-sxbTqITBYYLO2gPrFlr-10" target="-sxbTqITBYYLO2gPrFlr-35">
          <mxGeometry relative="1" as="geometry">
            <Array as="points">
              <mxPoint x="500" y="210" />
            </Array>
          </mxGeometry>
        </mxCell>
        <mxCell id="-sxbTqITBYYLO2gPrFlr-313" value="4" style="edgeLabel;html=1;align=center;verticalAlign=middle;resizable=0;points=[];" vertex="1" connectable="0" parent="-sxbTqITBYYLO2gPrFlr-312">
          <mxGeometry x="-0.2557" relative="1" as="geometry">
            <mxPoint as="offset" />
          </mxGeometry>
        </mxCell>
        <mxCell id="-sxbTqITBYYLO2gPrFlr-10" value="Anzahl Spieler?" style="rhombus;whiteSpace=wrap;html=1;" vertex="1" parent="WIyWlLk6GJQsqaUBKTNV-1">
          <mxGeometry x="570" y="171.25" width="80" height="80" as="geometry" />
        </mxCell>
        <mxCell id="-sxbTqITBYYLO2gPrFlr-15" value="" style="endArrow=classic;html=1;rounded=0;exitX=1;exitY=0.5;exitDx=0;exitDy=0;entryX=0.5;entryY=0;entryDx=0;entryDy=0;" edge="1" parent="WIyWlLk6GJQsqaUBKTNV-1" source="-sxbTqITBYYLO2gPrFlr-1" target="-sxbTqITBYYLO2gPrFlr-10">
          <mxGeometry width="50" height="50" relative="1" as="geometry">
            <mxPoint x="390" y="230" as="sourcePoint" />
            <mxPoint x="440" y="180" as="targetPoint" />
            <Array as="points">
              <mxPoint x="610" y="150" />
            </Array>
          </mxGeometry>
        </mxCell>
        <mxCell id="-sxbTqITBYYLO2gPrFlr-16" value="Neues Spiel" style="edgeLabel;html=1;align=center;verticalAlign=middle;resizable=0;points=[];" vertex="1" connectable="0" parent="-sxbTqITBYYLO2gPrFlr-15">
          <mxGeometry x="-0.0889" y="-1" relative="1" as="geometry">
            <mxPoint x="-2" y="-11" as="offset" />
          </mxGeometry>
        </mxCell>
        <mxCell id="-sxbTqITBYYLO2gPrFlr-84" style="edgeStyle=orthogonalEdgeStyle;rounded=0;orthogonalLoop=1;jettySize=auto;html=1;exitX=0.5;exitY=1;exitDx=0;exitDy=0;" edge="1" parent="WIyWlLk6GJQsqaUBKTNV-1" source="-sxbTqITBYYLO2gPrFlr-17" target="-sxbTqITBYYLO2gPrFlr-83">
          <mxGeometry relative="1" as="geometry" />
        </mxCell>
        <mxCell id="-sxbTqITBYYLO2gPrFlr-17" value="Spielbeginn" style="rounded=0;whiteSpace=wrap;html=1;" vertex="1" parent="WIyWlLk6GJQsqaUBKTNV-1">
          <mxGeometry x="80" y="480" width="120" height="60" as="geometry" />
        </mxCell>
        <mxCell id="-sxbTqITBYYLO2gPrFlr-28" style="edgeStyle=orthogonalEdgeStyle;rounded=0;orthogonalLoop=1;jettySize=auto;html=1;exitX=0;exitY=0.5;exitDx=0;exitDy=0;entryX=0;entryY=0.5;entryDx=0;entryDy=0;" edge="1" parent="WIyWlLk6GJQsqaUBKTNV-1" source="-sxbTqITBYYLO2gPrFlr-25" target="-sxbTqITBYYLO2gPrFlr-4">
          <mxGeometry relative="1" as="geometry" />
        </mxCell>
        <mxCell id="-sxbTqITBYYLO2gPrFlr-29" value="&lt;div&gt;ja&lt;/div&gt;&lt;div&gt;&lt;br&gt;&lt;/div&gt;" style="edgeLabel;html=1;align=center;verticalAlign=middle;resizable=0;points=[];" vertex="1" connectable="0" parent="-sxbTqITBYYLO2gPrFlr-28">
          <mxGeometry x="0.0018" y="-1" relative="1" as="geometry">
            <mxPoint x="9" y="5" as="offset" />
          </mxGeometry>
        </mxCell>
        <mxCell id="-sxbTqITBYYLO2gPrFlr-30" style="edgeStyle=orthogonalEdgeStyle;rounded=0;orthogonalLoop=1;jettySize=auto;html=1;exitX=0.5;exitY=1;exitDx=0;exitDy=0;entryX=0;entryY=0.25;entryDx=0;entryDy=0;" edge="1" parent="WIyWlLk6GJQsqaUBKTNV-1" source="-sxbTqITBYYLO2gPrFlr-316" target="-sxbTqITBYYLO2gPrFlr-1">
          <mxGeometry relative="1" as="geometry">
            <Array as="points">
              <mxPoint x="30" y="135" />
            </Array>
          </mxGeometry>
        </mxCell>
        <mxCell id="-sxbTqITBYYLO2gPrFlr-25" value="erneut eingeben?" style="rhombus;whiteSpace=wrap;html=1;" vertex="1" parent="WIyWlLk6GJQsqaUBKTNV-1">
          <mxGeometry x="115" y="320" width="90" height="90" as="geometry" />
        </mxCell>
        <mxCell id="-sxbTqITBYYLO2gPrFlr-33" value="Spielregeln einstellen" style="rounded=0;whiteSpace=wrap;html=1;" vertex="1" parent="WIyWlLk6GJQsqaUBKTNV-1">
          <mxGeometry x="240" y="480" width="120" height="60" as="geometry" />
        </mxCell>
        <mxCell id="-sxbTqITBYYLO2gPrFlr-42" style="edgeStyle=orthogonalEdgeStyle;rounded=0;orthogonalLoop=1;jettySize=auto;html=1;exitX=0.5;exitY=1;exitDx=0;exitDy=0;entryX=0.5;entryY=0;entryDx=0;entryDy=0;" edge="1" parent="WIyWlLk6GJQsqaUBKTNV-1" source="-sxbTqITBYYLO2gPrFlr-35" target="-sxbTqITBYYLO2gPrFlr-38">
          <mxGeometry relative="1" as="geometry">
            <Array as="points">
              <mxPoint x="460" y="300" />
              <mxPoint x="460" y="320" />
              <mxPoint x="453" y="320" />
            </Array>
          </mxGeometry>
        </mxCell>
        <mxCell id="-sxbTqITBYYLO2gPrFlr-35" value="&lt;div&gt;Eingabe: Spielername&lt;/div&gt;&lt;div&gt;&lt;br&gt;&lt;/div&gt;" style="rounded=0;whiteSpace=wrap;html=1;" vertex="1" parent="WIyWlLk6GJQsqaUBKTNV-1">
          <mxGeometry x="430" y="240" width="120" height="60" as="geometry" />
        </mxCell>
        <mxCell id="-sxbTqITBYYLO2gPrFlr-44" style="edgeStyle=orthogonalEdgeStyle;rounded=0;orthogonalLoop=1;jettySize=auto;html=1;exitX=1;exitY=0.5;exitDx=0;exitDy=0;entryX=0.5;entryY=0;entryDx=0;entryDy=0;" edge="1" parent="WIyWlLk6GJQsqaUBKTNV-1" source="-sxbTqITBYYLO2gPrFlr-38" target="-sxbTqITBYYLO2gPrFlr-43">
          <mxGeometry relative="1" as="geometry" />
        </mxCell>
        <mxCell id="-sxbTqITBYYLO2gPrFlr-45" value="nein" style="edgeLabel;html=1;align=center;verticalAlign=middle;resizable=0;points=[];" vertex="1" connectable="0" parent="-sxbTqITBYYLO2gPrFlr-44">
          <mxGeometry x="-0.4322" y="-2" relative="1" as="geometry">
            <mxPoint y="-16" as="offset" />
          </mxGeometry>
        </mxCell>
        <mxCell id="-sxbTqITBYYLO2gPrFlr-76" style="edgeStyle=orthogonalEdgeStyle;rounded=0;orthogonalLoop=1;jettySize=auto;html=1;exitX=0;exitY=0.5;exitDx=0;exitDy=0;entryX=1;entryY=0.5;entryDx=0;entryDy=0;" edge="1" parent="WIyWlLk6GJQsqaUBKTNV-1" source="-sxbTqITBYYLO2gPrFlr-38" target="-sxbTqITBYYLO2gPrFlr-70">
          <mxGeometry relative="1" as="geometry" />
        </mxCell>
        <mxCell id="-sxbTqITBYYLO2gPrFlr-77" value="ja" style="edgeLabel;html=1;align=center;verticalAlign=middle;resizable=0;points=[];" vertex="1" connectable="0" parent="-sxbTqITBYYLO2gPrFlr-76">
          <mxGeometry x="0.2375" y="2" relative="1" as="geometry">
            <mxPoint x="5" y="-12" as="offset" />
          </mxGeometry>
        </mxCell>
        <mxCell id="-sxbTqITBYYLO2gPrFlr-38" value="bereits vorhanden?" style="rhombus;whiteSpace=wrap;html=1;" vertex="1" parent="WIyWlLk6GJQsqaUBKTNV-1">
          <mxGeometry x="410" y="335" width="86" height="90" as="geometry" />
        </mxCell>
        <mxCell id="-sxbTqITBYYLO2gPrFlr-79" style="edgeStyle=orthogonalEdgeStyle;rounded=0;orthogonalLoop=1;jettySize=auto;html=1;exitX=0;exitY=0.5;exitDx=0;exitDy=0;entryX=0.5;entryY=1;entryDx=0;entryDy=0;" edge="1" parent="WIyWlLk6GJQsqaUBKTNV-1" source="-sxbTqITBYYLO2gPrFlr-43" target="-sxbTqITBYYLO2gPrFlr-38">
          <mxGeometry relative="1" as="geometry" />
        </mxCell>
        <mxCell id="-sxbTqITBYYLO2gPrFlr-43" value="neuen Spieler anlegen (Datenbank)" style="rounded=0;whiteSpace=wrap;html=1;" vertex="1" parent="WIyWlLk6GJQsqaUBKTNV-1">
          <mxGeometry x="530" y="430" width="120" height="60" as="geometry" />
        </mxCell>
        <mxCell id="-sxbTqITBYYLO2gPrFlr-55" style="edgeStyle=orthogonalEdgeStyle;rounded=0;orthogonalLoop=1;jettySize=auto;html=1;exitX=0.5;exitY=1;exitDx=0;exitDy=0;entryX=0.5;entryY=0;entryDx=0;entryDy=0;" edge="1" parent="WIyWlLk6GJQsqaUBKTNV-1" source="-sxbTqITBYYLO2gPrFlr-47" target="-sxbTqITBYYLO2gPrFlr-54">
          <mxGeometry relative="1" as="geometry" />
        </mxCell>
        <mxCell id="-sxbTqITBYYLO2gPrFlr-56" value="ja" style="edgeLabel;html=1;align=center;verticalAlign=middle;resizable=0;points=[];" vertex="1" connectable="0" parent="-sxbTqITBYYLO2gPrFlr-55">
          <mxGeometry x="-0.1747" y="-2" relative="1" as="geometry">
            <mxPoint x="12" as="offset" />
          </mxGeometry>
        </mxCell>
        <mxCell id="-sxbTqITBYYLO2gPrFlr-60" style="edgeStyle=orthogonalEdgeStyle;rounded=0;orthogonalLoop=1;jettySize=auto;html=1;exitX=0;exitY=0.5;exitDx=0;exitDy=0;entryX=1;entryY=0.25;entryDx=0;entryDy=0;" edge="1" parent="WIyWlLk6GJQsqaUBKTNV-1" source="-sxbTqITBYYLO2gPrFlr-47" target="-sxbTqITBYYLO2gPrFlr-35">
          <mxGeometry relative="1" as="geometry">
            <mxPoint x="480" y="300" as="targetPoint" />
          </mxGeometry>
        </mxCell>
        <mxCell id="-sxbTqITBYYLO2gPrFlr-62" value="nein" style="edgeLabel;html=1;align=center;verticalAlign=middle;resizable=0;points=[];" vertex="1" connectable="0" parent="-sxbTqITBYYLO2gPrFlr-60">
          <mxGeometry x="-0.6993" y="-2" relative="1" as="geometry">
            <mxPoint x="-3" y="-9" as="offset" />
          </mxGeometry>
        </mxCell>
        <mxCell id="-sxbTqITBYYLO2gPrFlr-47" value="Mit CPUs auffüllen?" style="rhombus;whiteSpace=wrap;html=1;" vertex="1" parent="WIyWlLk6GJQsqaUBKTNV-1">
          <mxGeometry x="700" y="240" width="80" height="80" as="geometry" />
        </mxCell>
        <mxCell id="-sxbTqITBYYLO2gPrFlr-57" style="edgeStyle=orthogonalEdgeStyle;rounded=0;orthogonalLoop=1;jettySize=auto;html=1;exitX=0;exitY=0.5;exitDx=0;exitDy=0;" edge="1" parent="WIyWlLk6GJQsqaUBKTNV-1" source="-sxbTqITBYYLO2gPrFlr-54" target="-sxbTqITBYYLO2gPrFlr-35">
          <mxGeometry relative="1" as="geometry">
            <mxPoint x="630" y="280" as="targetPoint" />
            <Array as="points">
              <mxPoint x="630" y="380" />
              <mxPoint x="630" y="300" />
              <mxPoint x="560" y="300" />
              <mxPoint x="560" y="280" />
            </Array>
          </mxGeometry>
        </mxCell>
        <mxCell id="-sxbTqITBYYLO2gPrFlr-54" value="Auswahl: Schwierigkeitsgrad CPUs" style="rounded=0;whiteSpace=wrap;html=1;" vertex="1" parent="WIyWlLk6GJQsqaUBKTNV-1">
          <mxGeometry x="680" y="350" width="120" height="60" as="geometry" />
        </mxCell>
        <mxCell id="-sxbTqITBYYLO2gPrFlr-65" style="edgeStyle=orthogonalEdgeStyle;rounded=0;orthogonalLoop=1;jettySize=auto;html=1;exitX=0;exitY=0.5;exitDx=0;exitDy=0;" edge="1" parent="WIyWlLk6GJQsqaUBKTNV-1" source="-sxbTqITBYYLO2gPrFlr-33" target="-sxbTqITBYYLO2gPrFlr-17">
          <mxGeometry relative="1" as="geometry">
            <Array as="points" />
          </mxGeometry>
        </mxCell>
        <mxCell id="-sxbTqITBYYLO2gPrFlr-67" style="edgeStyle=orthogonalEdgeStyle;rounded=0;orthogonalLoop=1;jettySize=auto;html=1;exitX=1;exitY=0.5;exitDx=0;exitDy=0;entryX=0.59;entryY=-0.034;entryDx=0;entryDy=0;entryPerimeter=0;" edge="1" parent="WIyWlLk6GJQsqaUBKTNV-1" source="-sxbTqITBYYLO2gPrFlr-4" target="-sxbTqITBYYLO2gPrFlr-17">
          <mxGeometry relative="1" as="geometry">
            <Array as="points">
              <mxPoint x="260" y="220" />
              <mxPoint x="260" y="450" />
              <mxPoint x="151" y="450" />
            </Array>
          </mxGeometry>
        </mxCell>
        <mxCell id="-sxbTqITBYYLO2gPrFlr-68" value="gefunden" style="edgeLabel;html=1;align=center;verticalAlign=middle;resizable=0;points=[];" vertex="1" connectable="0" parent="-sxbTqITBYYLO2gPrFlr-67">
          <mxGeometry x="-0.8294" relative="1" as="geometry">
            <mxPoint x="4" y="-9" as="offset" />
          </mxGeometry>
        </mxCell>
        <mxCell id="-sxbTqITBYYLO2gPrFlr-71" style="edgeStyle=orthogonalEdgeStyle;rounded=0;orthogonalLoop=1;jettySize=auto;html=1;exitX=0.5;exitY=0;exitDx=0;exitDy=0;entryX=0;entryY=0.5;entryDx=0;entryDy=0;" edge="1" parent="WIyWlLk6GJQsqaUBKTNV-1" source="-sxbTqITBYYLO2gPrFlr-70" target="-sxbTqITBYYLO2gPrFlr-35">
          <mxGeometry relative="1" as="geometry" />
        </mxCell>
        <mxCell id="-sxbTqITBYYLO2gPrFlr-72" value="nein" style="edgeLabel;html=1;align=center;verticalAlign=middle;resizable=0;points=[];" vertex="1" connectable="0" parent="-sxbTqITBYYLO2gPrFlr-71">
          <mxGeometry x="0.047" y="-5" relative="1" as="geometry">
            <mxPoint x="5" y="35" as="offset" />
          </mxGeometry>
        </mxCell>
        <mxCell id="-sxbTqITBYYLO2gPrFlr-70" value="alle Spieler registriert ?" style="rhombus;whiteSpace=wrap;html=1;" vertex="1" parent="WIyWlLk6GJQsqaUBKTNV-1">
          <mxGeometry x="280" y="330" width="90" height="100" as="geometry" />
        </mxCell>
        <mxCell id="-sxbTqITBYYLO2gPrFlr-74" style="edgeStyle=orthogonalEdgeStyle;rounded=0;orthogonalLoop=1;jettySize=auto;html=1;exitX=0.5;exitY=1;exitDx=0;exitDy=0;entryX=0.715;entryY=-0.019;entryDx=0;entryDy=0;entryPerimeter=0;" edge="1" parent="WIyWlLk6GJQsqaUBKTNV-1" source="-sxbTqITBYYLO2gPrFlr-70" target="-sxbTqITBYYLO2gPrFlr-33">
          <mxGeometry relative="1" as="geometry" />
        </mxCell>
        <mxCell id="-sxbTqITBYYLO2gPrFlr-75" value="&lt;div&gt;ja&lt;/div&gt;&lt;div&gt;&lt;br&gt;&lt;/div&gt;" style="edgeLabel;html=1;align=center;verticalAlign=middle;resizable=0;points=[];" vertex="1" connectable="0" parent="-sxbTqITBYYLO2gPrFlr-74">
          <mxGeometry x="-0.2675" y="3" relative="1" as="geometry">
            <mxPoint x="7" as="offset" />
          </mxGeometry>
        </mxCell>
        <mxCell id="-sxbTqITBYYLO2gPrFlr-88" style="edgeStyle=orthogonalEdgeStyle;rounded=0;orthogonalLoop=1;jettySize=auto;html=1;exitX=1;exitY=0.5;exitDx=0;exitDy=0;entryX=0;entryY=0.5;entryDx=0;entryDy=0;" edge="1" parent="WIyWlLk6GJQsqaUBKTNV-1" source="-sxbTqITBYYLO2gPrFlr-83" target="-sxbTqITBYYLO2gPrFlr-87">
          <mxGeometry relative="1" as="geometry" />
        </mxCell>
        <mxCell id="-sxbTqITBYYLO2gPrFlr-89" value="nein" style="edgeLabel;html=1;align=center;verticalAlign=middle;resizable=0;points=[];" vertex="1" connectable="0" parent="-sxbTqITBYYLO2gPrFlr-88">
          <mxGeometry x="-0.0543" y="2" relative="1" as="geometry">
            <mxPoint x="2" y="-8" as="offset" />
          </mxGeometry>
        </mxCell>
        <mxCell id="-sxbTqITBYYLO2gPrFlr-164" style="edgeStyle=orthogonalEdgeStyle;rounded=0;orthogonalLoop=1;jettySize=auto;html=1;exitX=0.5;exitY=1;exitDx=0;exitDy=0;entryX=0.5;entryY=0;entryDx=0;entryDy=0;" edge="1" parent="WIyWlLk6GJQsqaUBKTNV-1" source="-sxbTqITBYYLO2gPrFlr-83" target="-sxbTqITBYYLO2gPrFlr-163">
          <mxGeometry relative="1" as="geometry" />
        </mxCell>
        <mxCell id="-sxbTqITBYYLO2gPrFlr-276" value="ja" style="edgeLabel;html=1;align=center;verticalAlign=middle;resizable=0;points=[];" vertex="1" connectable="0" parent="-sxbTqITBYYLO2gPrFlr-164">
          <mxGeometry x="-0.5" y="-1" relative="1" as="geometry">
            <mxPoint as="offset" />
          </mxGeometry>
        </mxCell>
        <mxCell id="-sxbTqITBYYLO2gPrFlr-83" value="Spiel läuft?" style="rhombus;whiteSpace=wrap;html=1;" vertex="1" parent="WIyWlLk6GJQsqaUBKTNV-1">
          <mxGeometry x="210" y="585" width="80" height="80" as="geometry" />
        </mxCell>
        <mxCell id="-sxbTqITBYYLO2gPrFlr-105" style="edgeStyle=orthogonalEdgeStyle;rounded=0;orthogonalLoop=1;jettySize=auto;html=1;exitX=0.5;exitY=0;exitDx=0;exitDy=0;entryX=0.5;entryY=1;entryDx=0;entryDy=0;" edge="1" parent="WIyWlLk6GJQsqaUBKTNV-1" source="-sxbTqITBYYLO2gPrFlr-85" target="-sxbTqITBYYLO2gPrFlr-101">
          <mxGeometry relative="1" as="geometry" />
        </mxCell>
        <mxCell id="-sxbTqITBYYLO2gPrFlr-85" value="Spielstand speichern" style="rounded=0;whiteSpace=wrap;html=1;" vertex="1" parent="WIyWlLk6GJQsqaUBKTNV-1">
          <mxGeometry x="930" y="640" width="120" height="60" as="geometry" />
        </mxCell>
        <mxCell id="-sxbTqITBYYLO2gPrFlr-93" style="edgeStyle=orthogonalEdgeStyle;rounded=0;orthogonalLoop=1;jettySize=auto;html=1;exitX=0.5;exitY=1;exitDx=0;exitDy=0;entryX=0;entryY=0.5;entryDx=0;entryDy=0;" edge="1" parent="WIyWlLk6GJQsqaUBKTNV-1" source="-sxbTqITBYYLO2gPrFlr-87" target="-sxbTqITBYYLO2gPrFlr-90">
          <mxGeometry relative="1" as="geometry">
            <Array as="points">
              <mxPoint x="256" y="695" />
            </Array>
          </mxGeometry>
        </mxCell>
        <mxCell id="-sxbTqITBYYLO2gPrFlr-94" value="nein" style="edgeLabel;html=1;align=center;verticalAlign=middle;resizable=0;points=[];" vertex="1" connectable="0" parent="-sxbTqITBYYLO2gPrFlr-93">
          <mxGeometry x="-0.1847" y="-4" relative="1" as="geometry">
            <mxPoint y="11" as="offset" />
          </mxGeometry>
        </mxCell>
        <mxCell id="-sxbTqITBYYLO2gPrFlr-98" style="edgeStyle=orthogonalEdgeStyle;rounded=0;orthogonalLoop=1;jettySize=auto;html=1;exitX=1;exitY=0.5;exitDx=0;exitDy=0;entryX=0;entryY=0.5;entryDx=0;entryDy=0;" edge="1" parent="WIyWlLk6GJQsqaUBKTNV-1" source="-sxbTqITBYYLO2gPrFlr-87" target="-sxbTqITBYYLO2gPrFlr-97">
          <mxGeometry relative="1" as="geometry" />
        </mxCell>
        <mxCell id="-sxbTqITBYYLO2gPrFlr-99" value="ja" style="edgeLabel;html=1;align=center;verticalAlign=middle;resizable=0;points=[];" vertex="1" connectable="0" parent="-sxbTqITBYYLO2gPrFlr-98">
          <mxGeometry x="-0.3439" y="2" relative="1" as="geometry">
            <mxPoint y="-8" as="offset" />
          </mxGeometry>
        </mxCell>
        <mxCell id="-sxbTqITBYYLO2gPrFlr-87" value="vorzeitiges Ende?" style="rhombus;whiteSpace=wrap;html=1;" vertex="1" parent="WIyWlLk6GJQsqaUBKTNV-1">
          <mxGeometry x="320" y="585" width="80" height="80" as="geometry" />
        </mxCell>
        <mxCell id="-sxbTqITBYYLO2gPrFlr-90" value="Gewinner anzeigen" style="rounded=0;whiteSpace=wrap;html=1;" vertex="1" parent="WIyWlLk6GJQsqaUBKTNV-1">
          <mxGeometry x="357" y="720" width="114" height="50" as="geometry" />
        </mxCell>
        <mxCell id="-sxbTqITBYYLO2gPrFlr-104" style="edgeStyle=orthogonalEdgeStyle;rounded=0;orthogonalLoop=1;jettySize=auto;html=1;exitX=1;exitY=0.5;exitDx=0;exitDy=0;entryX=1;entryY=0.5;entryDx=0;entryDy=0;" edge="1" parent="WIyWlLk6GJQsqaUBKTNV-1" source="-sxbTqITBYYLO2gPrFlr-96" target="-sxbTqITBYYLO2gPrFlr-101">
          <mxGeometry relative="1" as="geometry" />
        </mxCell>
        <mxCell id="-sxbTqITBYYLO2gPrFlr-96" value="Ergebnis speichern" style="rounded=0;whiteSpace=wrap;html=1;" vertex="1" parent="WIyWlLk6GJQsqaUBKTNV-1">
          <mxGeometry x="930" y="710" width="120" height="60" as="geometry" />
        </mxCell>
        <mxCell id="-sxbTqITBYYLO2gPrFlr-102" style="edgeStyle=orthogonalEdgeStyle;rounded=0;orthogonalLoop=1;jettySize=auto;html=1;exitX=0.5;exitY=0;exitDx=0;exitDy=0;entryX=0;entryY=0.5;entryDx=0;entryDy=0;" edge="1" parent="WIyWlLk6GJQsqaUBKTNV-1" source="-sxbTqITBYYLO2gPrFlr-97" target="-sxbTqITBYYLO2gPrFlr-101">
          <mxGeometry relative="1" as="geometry">
            <Array as="points">
              <mxPoint x="490" y="620" />
              <mxPoint x="880" y="620" />
              <mxPoint x="880" y="518" />
            </Array>
          </mxGeometry>
        </mxCell>
        <mxCell id="-sxbTqITBYYLO2gPrFlr-103" value="nein" style="edgeLabel;html=1;align=center;verticalAlign=middle;resizable=0;points=[];" vertex="1" connectable="0" parent="-sxbTqITBYYLO2gPrFlr-102">
          <mxGeometry x="0.1469" y="3" relative="1" as="geometry">
            <mxPoint y="-10" as="offset" />
          </mxGeometry>
        </mxCell>
        <mxCell id="-sxbTqITBYYLO2gPrFlr-303" style="edgeStyle=orthogonalEdgeStyle;rounded=0;orthogonalLoop=1;jettySize=auto;html=1;exitX=1;exitY=0.5;exitDx=0;exitDy=0;entryX=0;entryY=0.5;entryDx=0;entryDy=0;" edge="1" parent="WIyWlLk6GJQsqaUBKTNV-1" source="-sxbTqITBYYLO2gPrFlr-97" target="-sxbTqITBYYLO2gPrFlr-85">
          <mxGeometry relative="1" as="geometry">
            <Array as="points">
              <mxPoint x="730" y="680" />
              <mxPoint x="730" y="670" />
              <mxPoint x="930" y="670" />
            </Array>
          </mxGeometry>
        </mxCell>
        <mxCell id="-sxbTqITBYYLO2gPrFlr-97" value="Speichern?" style="rhombus;whiteSpace=wrap;html=1;" vertex="1" parent="WIyWlLk6GJQsqaUBKTNV-1">
          <mxGeometry x="450" y="640" width="80" height="80" as="geometry" />
        </mxCell>
        <mxCell id="-sxbTqITBYYLO2gPrFlr-101" value="ENDE" style="ellipse;whiteSpace=wrap;html=1;" vertex="1" parent="WIyWlLk6GJQsqaUBKTNV-1">
          <mxGeometry x="950" y="490" width="80" height="55" as="geometry" />
        </mxCell>
        <mxCell id="-sxbTqITBYYLO2gPrFlr-151" style="edgeStyle=orthogonalEdgeStyle;rounded=0;orthogonalLoop=1;jettySize=auto;html=1;exitX=1;exitY=0.5;exitDx=0;exitDy=0;entryX=0.5;entryY=1;entryDx=0;entryDy=0;" edge="1" parent="WIyWlLk6GJQsqaUBKTNV-1" source="-sxbTqITBYYLO2gPrFlr-148">
          <mxGeometry relative="1" as="geometry">
            <mxPoint x="1132" y="475" as="targetPoint" />
            <Array as="points">
              <mxPoint x="1590" y="95" />
              <mxPoint x="1590" y="495" />
              <mxPoint x="1132" y="495" />
            </Array>
          </mxGeometry>
        </mxCell>
        <mxCell id="-sxbTqITBYYLO2gPrFlr-161" style="edgeStyle=orthogonalEdgeStyle;rounded=0;orthogonalLoop=1;jettySize=auto;html=1;exitX=0;exitY=0.5;exitDx=0;exitDy=0;entryX=0;entryY=0.5;entryDx=0;entryDy=0;" edge="1" parent="WIyWlLk6GJQsqaUBKTNV-1" source="-sxbTqITBYYLO2gPrFlr-158">
          <mxGeometry relative="1" as="geometry">
            <mxPoint x="1080" y="165" as="targetPoint" />
            <Array as="points">
              <mxPoint x="1030" y="360" />
              <mxPoint x="1030" y="165" />
            </Array>
          </mxGeometry>
        </mxCell>
        <mxCell id="-sxbTqITBYYLO2gPrFlr-166" style="edgeStyle=orthogonalEdgeStyle;rounded=0;orthogonalLoop=1;jettySize=auto;html=1;exitX=0.5;exitY=1;exitDx=0;exitDy=0;entryX=0.5;entryY=0;entryDx=0;entryDy=0;" edge="1" parent="WIyWlLk6GJQsqaUBKTNV-1" source="-sxbTqITBYYLO2gPrFlr-163" target="-sxbTqITBYYLO2gPrFlr-165">
          <mxGeometry relative="1" as="geometry" />
        </mxCell>
        <mxCell id="-sxbTqITBYYLO2gPrFlr-163" value="(nächster) Spieler würfelt und zieht" style="rounded=0;whiteSpace=wrap;html=1;" vertex="1" parent="WIyWlLk6GJQsqaUBKTNV-1">
          <mxGeometry x="80" y="720" width="120" height="60" as="geometry" />
        </mxCell>
        <mxCell id="-sxbTqITBYYLO2gPrFlr-168" style="edgeStyle=orthogonalEdgeStyle;rounded=0;orthogonalLoop=1;jettySize=auto;html=1;exitX=0.5;exitY=1;exitDx=0;exitDy=0;entryX=0.5;entryY=0;entryDx=0;entryDy=0;" edge="1" parent="WIyWlLk6GJQsqaUBKTNV-1" source="-sxbTqITBYYLO2gPrFlr-165" target="-sxbTqITBYYLO2gPrFlr-167">
          <mxGeometry relative="1" as="geometry" />
        </mxCell>
        <mxCell id="-sxbTqITBYYLO2gPrFlr-169" value="nein" style="edgeLabel;html=1;align=center;verticalAlign=middle;resizable=0;points=[];" vertex="1" connectable="0" parent="-sxbTqITBYYLO2gPrFlr-168">
          <mxGeometry x="-0.4113" y="2" relative="1" as="geometry">
            <mxPoint x="-22" as="offset" />
          </mxGeometry>
        </mxCell>
        <mxCell id="-sxbTqITBYYLO2gPrFlr-264" value="" style="edgeStyle=orthogonalEdgeStyle;rounded=0;orthogonalLoop=1;jettySize=auto;html=1;" edge="1" parent="WIyWlLk6GJQsqaUBKTNV-1" source="-sxbTqITBYYLO2gPrFlr-165" target="-sxbTqITBYYLO2gPrFlr-263">
          <mxGeometry relative="1" as="geometry" />
        </mxCell>
        <mxCell id="-sxbTqITBYYLO2gPrFlr-165" value="Pasch gewürfelt?" style="rhombus;whiteSpace=wrap;html=1;" vertex="1" parent="WIyWlLk6GJQsqaUBKTNV-1">
          <mxGeometry x="100" y="800" width="80" height="80" as="geometry" />
        </mxCell>
        <mxCell id="-sxbTqITBYYLO2gPrFlr-171" style="edgeStyle=orthogonalEdgeStyle;rounded=0;orthogonalLoop=1;jettySize=auto;html=1;exitX=1;exitY=0.5;exitDx=0;exitDy=0;entryX=0;entryY=0.5;entryDx=0;entryDy=0;" edge="1" parent="WIyWlLk6GJQsqaUBKTNV-1" source="-sxbTqITBYYLO2gPrFlr-167" target="-sxbTqITBYYLO2gPrFlr-170">
          <mxGeometry relative="1" as="geometry" />
        </mxCell>
        <mxCell id="-sxbTqITBYYLO2gPrFlr-172" value="ja" style="edgeLabel;html=1;align=center;verticalAlign=middle;resizable=0;points=[];" vertex="1" connectable="0" parent="-sxbTqITBYYLO2gPrFlr-171">
          <mxGeometry x="0.0055" y="-2" relative="1" as="geometry">
            <mxPoint x="-8" y="-17" as="offset" />
          </mxGeometry>
        </mxCell>
        <mxCell id="-sxbTqITBYYLO2gPrFlr-175" style="edgeStyle=orthogonalEdgeStyle;rounded=0;orthogonalLoop=1;jettySize=auto;html=1;exitX=0.5;exitY=1;exitDx=0;exitDy=0;entryX=0.5;entryY=0;entryDx=0;entryDy=0;" edge="1" parent="WIyWlLk6GJQsqaUBKTNV-1" source="-sxbTqITBYYLO2gPrFlr-167" target="-sxbTqITBYYLO2gPrFlr-173">
          <mxGeometry relative="1" as="geometry" />
        </mxCell>
        <mxCell id="-sxbTqITBYYLO2gPrFlr-176" value="nein" style="edgeLabel;html=1;align=center;verticalAlign=middle;resizable=0;points=[];" vertex="1" connectable="0" parent="-sxbTqITBYYLO2gPrFlr-175">
          <mxGeometry x="-0.4919" y="2" relative="1" as="geometry">
            <mxPoint x="-22" as="offset" />
          </mxGeometry>
        </mxCell>
        <mxCell id="-sxbTqITBYYLO2gPrFlr-167" value="Feld besetzt?" style="rhombus;whiteSpace=wrap;html=1;" vertex="1" parent="WIyWlLk6GJQsqaUBKTNV-1">
          <mxGeometry x="95" y="920" width="90" height="90" as="geometry" />
        </mxCell>
        <mxCell id="-sxbTqITBYYLO2gPrFlr-174" style="edgeStyle=orthogonalEdgeStyle;rounded=0;orthogonalLoop=1;jettySize=auto;html=1;exitX=0.5;exitY=1;exitDx=0;exitDy=0;entryX=0.5;entryY=0;entryDx=0;entryDy=0;" edge="1" parent="WIyWlLk6GJQsqaUBKTNV-1" source="-sxbTqITBYYLO2gPrFlr-170" target="-sxbTqITBYYLO2gPrFlr-173">
          <mxGeometry relative="1" as="geometry">
            <Array as="points">
              <mxPoint x="310" y="1050" />
              <mxPoint x="140" y="1050" />
            </Array>
          </mxGeometry>
        </mxCell>
        <mxCell id="-sxbTqITBYYLO2gPrFlr-170" value="lustige zufällige Interaktion" style="rounded=0;whiteSpace=wrap;html=1;" vertex="1" parent="WIyWlLk6GJQsqaUBKTNV-1">
          <mxGeometry x="250" y="935" width="120" height="60" as="geometry" />
        </mxCell>
        <mxCell id="-sxbTqITBYYLO2gPrFlr-178" style="edgeStyle=orthogonalEdgeStyle;rounded=0;orthogonalLoop=1;jettySize=auto;html=1;exitX=0;exitY=0.5;exitDx=0;exitDy=0;entryX=1;entryY=0.5;entryDx=0;entryDy=0;" edge="1" parent="WIyWlLk6GJQsqaUBKTNV-1" source="-sxbTqITBYYLO2gPrFlr-173" target="-sxbTqITBYYLO2gPrFlr-177">
          <mxGeometry relative="1" as="geometry" />
        </mxCell>
        <mxCell id="-sxbTqITBYYLO2gPrFlr-179" value="Ereignisfeld" style="edgeLabel;html=1;align=center;verticalAlign=middle;resizable=0;points=[];" vertex="1" connectable="0" parent="-sxbTqITBYYLO2gPrFlr-178">
          <mxGeometry x="-0.307" y="-1" relative="1" as="geometry">
            <mxPoint y="-9" as="offset" />
          </mxGeometry>
        </mxCell>
        <mxCell id="-sxbTqITBYYLO2gPrFlr-181" style="edgeStyle=orthogonalEdgeStyle;rounded=0;orthogonalLoop=1;jettySize=auto;html=1;exitX=0.5;exitY=1;exitDx=0;exitDy=0;entryX=0.5;entryY=0;entryDx=0;entryDy=0;" edge="1" parent="WIyWlLk6GJQsqaUBKTNV-1" source="-sxbTqITBYYLO2gPrFlr-173" target="-sxbTqITBYYLO2gPrFlr-180">
          <mxGeometry relative="1" as="geometry" />
        </mxCell>
        <mxCell id="-sxbTqITBYYLO2gPrFlr-182" value="Straße" style="edgeLabel;html=1;align=center;verticalAlign=middle;resizable=0;points=[];" vertex="1" connectable="0" parent="-sxbTqITBYYLO2gPrFlr-181">
          <mxGeometry x="-0.1237" y="2" relative="1" as="geometry">
            <mxPoint x="18" y="-16" as="offset" />
          </mxGeometry>
        </mxCell>
        <mxCell id="-sxbTqITBYYLO2gPrFlr-217" value="" style="edgeStyle=orthogonalEdgeStyle;rounded=0;orthogonalLoop=1;jettySize=auto;html=1;" edge="1" parent="WIyWlLk6GJQsqaUBKTNV-1" source="-sxbTqITBYYLO2gPrFlr-173" target="-sxbTqITBYYLO2gPrFlr-216">
          <mxGeometry relative="1" as="geometry" />
        </mxCell>
        <mxCell id="-sxbTqITBYYLO2gPrFlr-234" value="Bahnhof" style="edgeLabel;html=1;align=center;verticalAlign=middle;resizable=0;points=[];" vertex="1" connectable="0" parent="-sxbTqITBYYLO2gPrFlr-217">
          <mxGeometry x="-0.0577" y="-2" relative="1" as="geometry">
            <mxPoint x="-2" y="-12" as="offset" />
          </mxGeometry>
        </mxCell>
        <mxCell id="-sxbTqITBYYLO2gPrFlr-173" value="Feldtyp" style="rhombus;whiteSpace=wrap;html=1;" vertex="1" parent="WIyWlLk6GJQsqaUBKTNV-1">
          <mxGeometry x="100" y="1070" width="80" height="80" as="geometry" />
        </mxCell>
        <mxCell id="-sxbTqITBYYLO2gPrFlr-256" style="edgeStyle=orthogonalEdgeStyle;rounded=0;orthogonalLoop=1;jettySize=auto;html=1;exitX=0;exitY=0.25;exitDx=0;exitDy=0;entryX=0;entryY=0;entryDx=0;entryDy=0;" edge="1" parent="WIyWlLk6GJQsqaUBKTNV-1" source="-sxbTqITBYYLO2gPrFlr-177" target="-sxbTqITBYYLO2gPrFlr-197">
          <mxGeometry relative="1" as="geometry" />
        </mxCell>
        <mxCell id="-sxbTqITBYYLO2gPrFlr-177" value="Ereignisevent ausführen" style="rounded=0;whiteSpace=wrap;html=1;fillColor=default;fontColor=light-dark(#FFFFFF,#FFFFFF);strokeColor=light-dark(#2D7600, #ffffff);" vertex="1" parent="WIyWlLk6GJQsqaUBKTNV-1">
          <mxGeometry x="-120" y="1080" width="120" height="60" as="geometry" />
        </mxCell>
        <mxCell id="-sxbTqITBYYLO2gPrFlr-185" value="" style="edgeStyle=orthogonalEdgeStyle;rounded=0;orthogonalLoop=1;jettySize=auto;html=1;" edge="1" parent="WIyWlLk6GJQsqaUBKTNV-1" source="-sxbTqITBYYLO2gPrFlr-180" target="-sxbTqITBYYLO2gPrFlr-184">
          <mxGeometry relative="1" as="geometry" />
        </mxCell>
        <mxCell id="-sxbTqITBYYLO2gPrFlr-186" value="ja" style="edgeLabel;html=1;align=center;verticalAlign=middle;resizable=0;points=[];" vertex="1" connectable="0" parent="-sxbTqITBYYLO2gPrFlr-185">
          <mxGeometry x="-0.2339" relative="1" as="geometry">
            <mxPoint x="10" as="offset" />
          </mxGeometry>
        </mxCell>
        <mxCell id="-sxbTqITBYYLO2gPrFlr-196" value="" style="edgeStyle=orthogonalEdgeStyle;rounded=0;orthogonalLoop=1;jettySize=auto;html=1;" edge="1" parent="WIyWlLk6GJQsqaUBKTNV-1" source="-sxbTqITBYYLO2gPrFlr-180" target="-sxbTqITBYYLO2gPrFlr-195">
          <mxGeometry relative="1" as="geometry" />
        </mxCell>
        <mxCell id="-sxbTqITBYYLO2gPrFlr-200" value="nein" style="edgeLabel;html=1;align=center;verticalAlign=middle;resizable=0;points=[];" vertex="1" connectable="0" parent="-sxbTqITBYYLO2gPrFlr-196">
          <mxGeometry x="-0.1143" y="3" relative="1" as="geometry">
            <mxPoint y="7" as="offset" />
          </mxGeometry>
        </mxCell>
        <mxCell id="-sxbTqITBYYLO2gPrFlr-180" value="bereits gekauft?" style="rhombus;whiteSpace=wrap;html=1;" vertex="1" parent="WIyWlLk6GJQsqaUBKTNV-1">
          <mxGeometry x="100" y="1210" width="80" height="80" as="geometry" />
        </mxCell>
        <mxCell id="-sxbTqITBYYLO2gPrFlr-189" value="" style="edgeStyle=orthogonalEdgeStyle;rounded=0;orthogonalLoop=1;jettySize=auto;html=1;" edge="1" parent="WIyWlLk6GJQsqaUBKTNV-1" source="-sxbTqITBYYLO2gPrFlr-184" target="-sxbTqITBYYLO2gPrFlr-188">
          <mxGeometry relative="1" as="geometry" />
        </mxCell>
        <mxCell id="-sxbTqITBYYLO2gPrFlr-190" value="ja" style="edgeLabel;html=1;align=center;verticalAlign=middle;resizable=0;points=[];" vertex="1" connectable="0" parent="-sxbTqITBYYLO2gPrFlr-189">
          <mxGeometry x="-0.1039" y="-1" relative="1" as="geometry">
            <mxPoint y="-9" as="offset" />
          </mxGeometry>
        </mxCell>
        <mxCell id="-sxbTqITBYYLO2gPrFlr-192" value="" style="edgeStyle=orthogonalEdgeStyle;rounded=0;orthogonalLoop=1;jettySize=auto;html=1;" edge="1" parent="WIyWlLk6GJQsqaUBKTNV-1" source="-sxbTqITBYYLO2gPrFlr-184" target="-sxbTqITBYYLO2gPrFlr-191">
          <mxGeometry relative="1" as="geometry" />
        </mxCell>
        <mxCell id="-sxbTqITBYYLO2gPrFlr-193" value="nein" style="edgeLabel;html=1;align=center;verticalAlign=middle;resizable=0;points=[];" vertex="1" connectable="0" parent="-sxbTqITBYYLO2gPrFlr-192">
          <mxGeometry x="-0.3371" relative="1" as="geometry">
            <mxPoint x="20" as="offset" />
          </mxGeometry>
        </mxCell>
        <mxCell id="-sxbTqITBYYLO2gPrFlr-184" value="genug für Miete?" style="rhombus;whiteSpace=wrap;html=1;direction=south;" vertex="1" parent="WIyWlLk6GJQsqaUBKTNV-1">
          <mxGeometry x="100" y="1330" width="80" height="80" as="geometry" />
        </mxCell>
        <mxCell id="-sxbTqITBYYLO2gPrFlr-203" style="edgeStyle=orthogonalEdgeStyle;rounded=0;orthogonalLoop=1;jettySize=auto;html=1;exitX=0;exitY=0.5;exitDx=0;exitDy=0;entryX=0.654;entryY=0.034;entryDx=0;entryDy=0;entryPerimeter=0;" edge="1" parent="WIyWlLk6GJQsqaUBKTNV-1" source="-sxbTqITBYYLO2gPrFlr-188" target="-sxbTqITBYYLO2gPrFlr-197">
          <mxGeometry relative="1" as="geometry">
            <Array as="points">
              <mxPoint x="-202" y="1370" />
              <mxPoint x="-202" y="1542" />
            </Array>
          </mxGeometry>
        </mxCell>
        <mxCell id="-sxbTqITBYYLO2gPrFlr-188" value="Miete bezahlen" style="rounded=0;whiteSpace=wrap;html=1;" vertex="1" parent="WIyWlLk6GJQsqaUBKTNV-1">
          <mxGeometry x="-120" y="1340" width="120" height="60" as="geometry" />
        </mxCell>
        <mxCell id="-sxbTqITBYYLO2gPrFlr-191" value="game over" style="rounded=0;whiteSpace=wrap;html=1;" vertex="1" parent="WIyWlLk6GJQsqaUBKTNV-1">
          <mxGeometry x="80" y="1460" width="120" height="60" as="geometry" />
        </mxCell>
        <mxCell id="-sxbTqITBYYLO2gPrFlr-199" value="" style="edgeStyle=orthogonalEdgeStyle;rounded=0;orthogonalLoop=1;jettySize=auto;html=1;" edge="1" parent="WIyWlLk6GJQsqaUBKTNV-1" source="-sxbTqITBYYLO2gPrFlr-195" target="-sxbTqITBYYLO2gPrFlr-198">
          <mxGeometry relative="1" as="geometry" />
        </mxCell>
        <mxCell id="-sxbTqITBYYLO2gPrFlr-201" value="ja" style="edgeLabel;html=1;align=center;verticalAlign=middle;resizable=0;points=[];" vertex="1" connectable="0" parent="-sxbTqITBYYLO2gPrFlr-199">
          <mxGeometry x="-0.2286" y="1" relative="1" as="geometry">
            <mxPoint x="3" y="-11" as="offset" />
          </mxGeometry>
        </mxCell>
        <mxCell id="-sxbTqITBYYLO2gPrFlr-195" value="genug zum kauf?" style="rhombus;whiteSpace=wrap;html=1;" vertex="1" parent="WIyWlLk6GJQsqaUBKTNV-1">
          <mxGeometry x="-100" y="1210" width="80" height="80" as="geometry" />
        </mxCell>
        <mxCell id="-sxbTqITBYYLO2gPrFlr-269" style="edgeStyle=orthogonalEdgeStyle;rounded=0;orthogonalLoop=1;jettySize=auto;html=1;exitX=0;exitY=0.5;exitDx=0;exitDy=0;entryX=0.5;entryY=1;entryDx=0;entryDy=0;" edge="1" parent="WIyWlLk6GJQsqaUBKTNV-1" source="-sxbTqITBYYLO2gPrFlr-197" target="-sxbTqITBYYLO2gPrFlr-268">
          <mxGeometry relative="1" as="geometry" />
        </mxCell>
        <mxCell id="-sxbTqITBYYLO2gPrFlr-197" value="Items benutzen" style="rounded=0;whiteSpace=wrap;html=1;" vertex="1" parent="WIyWlLk6GJQsqaUBKTNV-1">
          <mxGeometry x="-280" y="1540" width="120" height="60" as="geometry" />
        </mxCell>
        <mxCell id="-sxbTqITBYYLO2gPrFlr-202" style="edgeStyle=orthogonalEdgeStyle;rounded=0;orthogonalLoop=1;jettySize=auto;html=1;exitX=0.5;exitY=1;exitDx=0;exitDy=0;" edge="1" parent="WIyWlLk6GJQsqaUBKTNV-1" source="-sxbTqITBYYLO2gPrFlr-198" target="-sxbTqITBYYLO2gPrFlr-197">
          <mxGeometry relative="1" as="geometry">
            <Array as="points">
              <mxPoint x="-260" y="1280" />
            </Array>
          </mxGeometry>
        </mxCell>
        <mxCell id="-sxbTqITBYYLO2gPrFlr-198" value="Kaufen" style="rounded=0;whiteSpace=wrap;html=1;" vertex="1" parent="WIyWlLk6GJQsqaUBKTNV-1">
          <mxGeometry x="-270" y="1220" width="120" height="60" as="geometry" />
        </mxCell>
        <mxCell id="-sxbTqITBYYLO2gPrFlr-204" style="edgeStyle=orthogonalEdgeStyle;rounded=0;orthogonalLoop=1;jettySize=auto;html=1;exitX=0.5;exitY=1;exitDx=0;exitDy=0;entryX=0.419;entryY=-0.006;entryDx=0;entryDy=0;entryPerimeter=0;" edge="1" parent="WIyWlLk6GJQsqaUBKTNV-1" source="-sxbTqITBYYLO2gPrFlr-195" target="-sxbTqITBYYLO2gPrFlr-197">
          <mxGeometry relative="1" as="geometry">
            <Array as="points">
              <mxPoint x="-60" y="1320" />
              <mxPoint x="-230" y="1320" />
            </Array>
          </mxGeometry>
        </mxCell>
        <mxCell id="-sxbTqITBYYLO2gPrFlr-205" value="nein" style="edgeLabel;html=1;align=center;verticalAlign=middle;resizable=0;points=[];" vertex="1" connectable="0" parent="-sxbTqITBYYLO2gPrFlr-204">
          <mxGeometry x="-0.2901" y="2" relative="1" as="geometry">
            <mxPoint y="-12" as="offset" />
          </mxGeometry>
        </mxCell>
        <mxCell id="-sxbTqITBYYLO2gPrFlr-206" style="edgeStyle=orthogonalEdgeStyle;rounded=0;orthogonalLoop=1;jettySize=auto;html=1;exitX=0;exitY=0.5;exitDx=0;exitDy=0;" edge="1" parent="WIyWlLk6GJQsqaUBKTNV-1" source="-sxbTqITBYYLO2gPrFlr-191">
          <mxGeometry relative="1" as="geometry">
            <mxPoint x="-180" y="1540" as="targetPoint" />
            <Array as="points">
              <mxPoint x="-180" y="1490" />
            </Array>
          </mxGeometry>
        </mxCell>
        <mxCell id="-sxbTqITBYYLO2gPrFlr-219" value="" style="edgeStyle=orthogonalEdgeStyle;rounded=0;orthogonalLoop=1;jettySize=auto;html=1;" edge="1" parent="WIyWlLk6GJQsqaUBKTNV-1" source="-sxbTqITBYYLO2gPrFlr-216" target="-sxbTqITBYYLO2gPrFlr-218">
          <mxGeometry relative="1" as="geometry" />
        </mxCell>
        <mxCell id="-sxbTqITBYYLO2gPrFlr-236" value="ja" style="edgeLabel;html=1;align=center;verticalAlign=middle;resizable=0;points=[];" vertex="1" connectable="0" parent="-sxbTqITBYYLO2gPrFlr-219">
          <mxGeometry x="-0.1682" y="-2" relative="1" as="geometry">
            <mxPoint x="12" as="offset" />
          </mxGeometry>
        </mxCell>
        <mxCell id="-sxbTqITBYYLO2gPrFlr-230" value="" style="edgeStyle=orthogonalEdgeStyle;rounded=0;orthogonalLoop=1;jettySize=auto;html=1;" edge="1" parent="WIyWlLk6GJQsqaUBKTNV-1" source="-sxbTqITBYYLO2gPrFlr-216" target="-sxbTqITBYYLO2gPrFlr-229">
          <mxGeometry relative="1" as="geometry" />
        </mxCell>
        <mxCell id="-sxbTqITBYYLO2gPrFlr-235" value="nein" style="edgeLabel;html=1;align=center;verticalAlign=middle;resizable=0;points=[];" vertex="1" connectable="0" parent="-sxbTqITBYYLO2gPrFlr-230">
          <mxGeometry x="-0.475" relative="1" as="geometry">
            <mxPoint x="9" y="-10" as="offset" />
          </mxGeometry>
        </mxCell>
        <mxCell id="-sxbTqITBYYLO2gPrFlr-216" value="bereits gekauft?" style="rhombus;whiteSpace=wrap;html=1;" vertex="1" parent="WIyWlLk6GJQsqaUBKTNV-1">
          <mxGeometry x="260" y="1070" width="80" height="80" as="geometry" />
        </mxCell>
        <mxCell id="-sxbTqITBYYLO2gPrFlr-221" value="" style="edgeStyle=orthogonalEdgeStyle;rounded=0;orthogonalLoop=1;jettySize=auto;html=1;" edge="1" parent="WIyWlLk6GJQsqaUBKTNV-1" source="-sxbTqITBYYLO2gPrFlr-218" target="-sxbTqITBYYLO2gPrFlr-220">
          <mxGeometry relative="1" as="geometry" />
        </mxCell>
        <mxCell id="-sxbTqITBYYLO2gPrFlr-237" value="ja" style="edgeLabel;html=1;align=center;verticalAlign=middle;resizable=0;points=[];" vertex="1" connectable="0" parent="-sxbTqITBYYLO2gPrFlr-221">
          <mxGeometry x="-0.1297" relative="1" as="geometry">
            <mxPoint x="10" y="-2" as="offset" />
          </mxGeometry>
        </mxCell>
        <mxCell id="-sxbTqITBYYLO2gPrFlr-227" style="edgeStyle=orthogonalEdgeStyle;rounded=0;orthogonalLoop=1;jettySize=auto;html=1;exitX=0;exitY=0.5;exitDx=0;exitDy=0;entryX=1;entryY=0.5;entryDx=0;entryDy=0;" edge="1" parent="WIyWlLk6GJQsqaUBKTNV-1" source="-sxbTqITBYYLO2gPrFlr-218" target="-sxbTqITBYYLO2gPrFlr-191">
          <mxGeometry relative="1" as="geometry" />
        </mxCell>
        <mxCell id="-sxbTqITBYYLO2gPrFlr-228" value="nein" style="edgeLabel;html=1;align=center;verticalAlign=middle;resizable=0;points=[];" vertex="1" connectable="0" parent="-sxbTqITBYYLO2gPrFlr-227">
          <mxGeometry x="-0.6073" relative="1" as="geometry">
            <mxPoint y="-45" as="offset" />
          </mxGeometry>
        </mxCell>
        <mxCell id="-sxbTqITBYYLO2gPrFlr-218" value="genug für Miete?" style="rhombus;whiteSpace=wrap;html=1;" vertex="1" parent="WIyWlLk6GJQsqaUBKTNV-1">
          <mxGeometry x="260" y="1230" width="80" height="80" as="geometry" />
        </mxCell>
        <mxCell id="-sxbTqITBYYLO2gPrFlr-223" value="" style="edgeStyle=orthogonalEdgeStyle;rounded=0;orthogonalLoop=1;jettySize=auto;html=1;" edge="1" parent="WIyWlLk6GJQsqaUBKTNV-1" source="-sxbTqITBYYLO2gPrFlr-220" target="-sxbTqITBYYLO2gPrFlr-222">
          <mxGeometry relative="1" as="geometry" />
        </mxCell>
        <mxCell id="-sxbTqITBYYLO2gPrFlr-220" value="Miete bezahlen" style="whiteSpace=wrap;html=1;" vertex="1" parent="WIyWlLk6GJQsqaUBKTNV-1">
          <mxGeometry x="280" y="1360" width="120" height="60" as="geometry" />
        </mxCell>
        <mxCell id="-sxbTqITBYYLO2gPrFlr-225" value="" style="edgeStyle=orthogonalEdgeStyle;rounded=0;orthogonalLoop=1;jettySize=auto;html=1;" edge="1" parent="WIyWlLk6GJQsqaUBKTNV-1" source="-sxbTqITBYYLO2gPrFlr-222" target="-sxbTqITBYYLO2gPrFlr-224">
          <mxGeometry relative="1" as="geometry" />
        </mxCell>
        <mxCell id="-sxbTqITBYYLO2gPrFlr-226" value="Bahnhof" style="edgeLabel;html=1;align=center;verticalAlign=middle;resizable=0;points=[];" vertex="1" connectable="0" parent="-sxbTqITBYYLO2gPrFlr-225">
          <mxGeometry x="-0.125" y="4" relative="1" as="geometry">
            <mxPoint x="21" as="offset" />
          </mxGeometry>
        </mxCell>
        <mxCell id="-sxbTqITBYYLO2gPrFlr-251" style="edgeStyle=orthogonalEdgeStyle;rounded=0;orthogonalLoop=1;jettySize=auto;html=1;exitX=0;exitY=0.5;exitDx=0;exitDy=0;entryX=0.5;entryY=0;entryDx=0;entryDy=0;" edge="1" parent="WIyWlLk6GJQsqaUBKTNV-1" source="-sxbTqITBYYLO2gPrFlr-222" target="-sxbTqITBYYLO2gPrFlr-250">
          <mxGeometry relative="1" as="geometry">
            <Array as="points">
              <mxPoint x="300" y="1550" />
              <mxPoint x="200" y="1550" />
            </Array>
          </mxGeometry>
        </mxCell>
        <mxCell id="-sxbTqITBYYLO2gPrFlr-252" value="Helikopter" style="edgeLabel;html=1;align=center;verticalAlign=middle;resizable=0;points=[];" vertex="1" connectable="0" parent="-sxbTqITBYYLO2gPrFlr-251">
          <mxGeometry x="-0.0458" y="-4" relative="1" as="geometry">
            <mxPoint x="-16" y="-6" as="offset" />
          </mxGeometry>
        </mxCell>
        <mxCell id="-sxbTqITBYYLO2gPrFlr-222" value="Bahnhof/Helipad?" style="rhombus;whiteSpace=wrap;html=1;" vertex="1" parent="WIyWlLk6GJQsqaUBKTNV-1">
          <mxGeometry x="300" y="1450" width="80" height="80" as="geometry" />
        </mxCell>
        <mxCell id="-sxbTqITBYYLO2gPrFlr-243" value="" style="edgeStyle=orthogonalEdgeStyle;rounded=0;orthogonalLoop=1;jettySize=auto;html=1;" edge="1" parent="WIyWlLk6GJQsqaUBKTNV-1" source="-sxbTqITBYYLO2gPrFlr-224" target="-sxbTqITBYYLO2gPrFlr-242">
          <mxGeometry relative="1" as="geometry" />
        </mxCell>
        <mxCell id="-sxbTqITBYYLO2gPrFlr-247" value="ja" style="edgeLabel;html=1;align=center;verticalAlign=middle;resizable=0;points=[];" vertex="1" connectable="0" parent="-sxbTqITBYYLO2gPrFlr-243">
          <mxGeometry x="-0.2912" y="-4" relative="1" as="geometry">
            <mxPoint as="offset" />
          </mxGeometry>
        </mxCell>
        <mxCell id="-sxbTqITBYYLO2gPrFlr-224" value="Bahnhof benutzen (genug Geld?)" style="rhombus;whiteSpace=wrap;html=1;" vertex="1" parent="WIyWlLk6GJQsqaUBKTNV-1">
          <mxGeometry x="285" y="1560" width="110" height="130" as="geometry" />
        </mxCell>
        <mxCell id="-sxbTqITBYYLO2gPrFlr-232" value="" style="edgeStyle=orthogonalEdgeStyle;rounded=0;orthogonalLoop=1;jettySize=auto;html=1;" edge="1" parent="WIyWlLk6GJQsqaUBKTNV-1" source="-sxbTqITBYYLO2gPrFlr-229" target="-sxbTqITBYYLO2gPrFlr-231">
          <mxGeometry relative="1" as="geometry" />
        </mxCell>
        <mxCell id="-sxbTqITBYYLO2gPrFlr-238" value="ja" style="edgeLabel;html=1;align=center;verticalAlign=middle;resizable=0;points=[];" vertex="1" connectable="0" parent="-sxbTqITBYYLO2gPrFlr-232">
          <mxGeometry x="-0.4088" relative="1" as="geometry">
            <mxPoint x="14" y="3" as="offset" />
          </mxGeometry>
        </mxCell>
        <mxCell id="-sxbTqITBYYLO2gPrFlr-241" style="edgeStyle=orthogonalEdgeStyle;rounded=0;orthogonalLoop=1;jettySize=auto;html=1;exitX=0.5;exitY=0;exitDx=0;exitDy=0;" edge="1" parent="WIyWlLk6GJQsqaUBKTNV-1" source="-sxbTqITBYYLO2gPrFlr-229">
          <mxGeometry relative="1" as="geometry">
            <mxPoint x="-270" y="1600" as="targetPoint" />
            <Array as="points">
              <mxPoint x="460" y="1050" />
              <mxPoint x="600" y="1050" />
              <mxPoint x="600" y="1810" />
              <mxPoint x="-270" y="1810" />
              <mxPoint x="-270" y="1600" />
            </Array>
          </mxGeometry>
        </mxCell>
        <mxCell id="-sxbTqITBYYLO2gPrFlr-262" value="nein" style="edgeLabel;html=1;align=center;verticalAlign=middle;resizable=0;points=[];" vertex="1" connectable="0" parent="-sxbTqITBYYLO2gPrFlr-241">
          <mxGeometry x="-0.921" y="6" relative="1" as="geometry">
            <mxPoint x="-1" as="offset" />
          </mxGeometry>
        </mxCell>
        <mxCell id="-sxbTqITBYYLO2gPrFlr-229" value="genug zum kauf?" style="rhombus;whiteSpace=wrap;html=1;" vertex="1" parent="WIyWlLk6GJQsqaUBKTNV-1">
          <mxGeometry x="420" y="1070" width="80" height="80" as="geometry" />
        </mxCell>
        <mxCell id="-sxbTqITBYYLO2gPrFlr-233" style="edgeStyle=orthogonalEdgeStyle;rounded=0;orthogonalLoop=1;jettySize=auto;html=1;exitX=0.5;exitY=1;exitDx=0;exitDy=0;entryX=1;entryY=0.5;entryDx=0;entryDy=0;" edge="1" parent="WIyWlLk6GJQsqaUBKTNV-1" source="-sxbTqITBYYLO2gPrFlr-231" target="-sxbTqITBYYLO2gPrFlr-222">
          <mxGeometry relative="1" as="geometry" />
        </mxCell>
        <mxCell id="-sxbTqITBYYLO2gPrFlr-231" value="Kaufen" style="whiteSpace=wrap;html=1;" vertex="1" parent="WIyWlLk6GJQsqaUBKTNV-1">
          <mxGeometry x="400" y="1240" width="120" height="60" as="geometry" />
        </mxCell>
        <mxCell id="-sxbTqITBYYLO2gPrFlr-258" style="edgeStyle=orthogonalEdgeStyle;rounded=0;orthogonalLoop=1;jettySize=auto;html=1;exitX=0.5;exitY=1;exitDx=0;exitDy=0;entryX=0.25;entryY=1;entryDx=0;entryDy=0;" edge="1" parent="WIyWlLk6GJQsqaUBKTNV-1" source="-sxbTqITBYYLO2gPrFlr-242" target="-sxbTqITBYYLO2gPrFlr-197">
          <mxGeometry relative="1" as="geometry">
            <Array as="points">
              <mxPoint x="494" y="1790" />
              <mxPoint x="-250" y="1790" />
            </Array>
          </mxGeometry>
        </mxCell>
        <mxCell id="-sxbTqITBYYLO2gPrFlr-242" value="Bahnhof auswählen" style="whiteSpace=wrap;html=1;" vertex="1" parent="WIyWlLk6GJQsqaUBKTNV-1">
          <mxGeometry x="434" y="1595" width="120" height="60" as="geometry" />
        </mxCell>
        <mxCell id="-sxbTqITBYYLO2gPrFlr-246" style="edgeStyle=orthogonalEdgeStyle;rounded=0;orthogonalLoop=1;jettySize=auto;html=1;exitX=0.5;exitY=1;exitDx=0;exitDy=0;entryX=0.43;entryY=0.985;entryDx=0;entryDy=0;entryPerimeter=0;" edge="1" parent="WIyWlLk6GJQsqaUBKTNV-1" source="-sxbTqITBYYLO2gPrFlr-224" target="-sxbTqITBYYLO2gPrFlr-197">
          <mxGeometry relative="1" as="geometry">
            <Array as="points">
              <mxPoint x="340" y="1760" />
              <mxPoint x="-228" y="1760" />
            </Array>
          </mxGeometry>
        </mxCell>
        <mxCell id="-sxbTqITBYYLO2gPrFlr-260" value="nein" style="edgeLabel;html=1;align=center;verticalAlign=middle;resizable=0;points=[];" vertex="1" connectable="0" parent="-sxbTqITBYYLO2gPrFlr-246">
          <mxGeometry x="-0.9061" y="2" relative="1" as="geometry">
            <mxPoint x="12" y="-8" as="offset" />
          </mxGeometry>
        </mxCell>
        <mxCell id="-sxbTqITBYYLO2gPrFlr-254" value="" style="edgeStyle=orthogonalEdgeStyle;rounded=0;orthogonalLoop=1;jettySize=auto;html=1;" edge="1" parent="WIyWlLk6GJQsqaUBKTNV-1" source="-sxbTqITBYYLO2gPrFlr-250" target="-sxbTqITBYYLO2gPrFlr-253">
          <mxGeometry relative="1" as="geometry" />
        </mxCell>
        <mxCell id="-sxbTqITBYYLO2gPrFlr-257" value="ja" style="edgeLabel;html=1;align=center;verticalAlign=middle;resizable=0;points=[];" vertex="1" connectable="0" parent="-sxbTqITBYYLO2gPrFlr-254">
          <mxGeometry x="-0.1188" y="-1" relative="1" as="geometry">
            <mxPoint as="offset" />
          </mxGeometry>
        </mxCell>
        <mxCell id="-sxbTqITBYYLO2gPrFlr-250" value="Heli benutzen (genug Geld?)" style="rhombus;whiteSpace=wrap;html=1;" vertex="1" parent="WIyWlLk6GJQsqaUBKTNV-1">
          <mxGeometry x="150" y="1572.5" width="100" height="105" as="geometry" />
        </mxCell>
        <mxCell id="-sxbTqITBYYLO2gPrFlr-255" style="edgeStyle=orthogonalEdgeStyle;rounded=0;orthogonalLoop=1;jettySize=auto;html=1;exitX=0;exitY=0.5;exitDx=0;exitDy=0;entryX=1;entryY=0.5;entryDx=0;entryDy=0;" edge="1" parent="WIyWlLk6GJQsqaUBKTNV-1" source="-sxbTqITBYYLO2gPrFlr-253" target="-sxbTqITBYYLO2gPrFlr-197">
          <mxGeometry relative="1" as="geometry" />
        </mxCell>
        <mxCell id="-sxbTqITBYYLO2gPrFlr-253" value="Ziel auswählen" style="rounded=0;whiteSpace=wrap;html=1;" vertex="1" parent="WIyWlLk6GJQsqaUBKTNV-1">
          <mxGeometry x="-40" y="1595" width="120" height="60" as="geometry" />
        </mxCell>
        <mxCell id="-sxbTqITBYYLO2gPrFlr-259" style="edgeStyle=orthogonalEdgeStyle;rounded=0;orthogonalLoop=1;jettySize=auto;html=1;entryX=0.581;entryY=1.013;entryDx=0;entryDy=0;entryPerimeter=0;" edge="1" parent="WIyWlLk6GJQsqaUBKTNV-1" source="-sxbTqITBYYLO2gPrFlr-250" target="-sxbTqITBYYLO2gPrFlr-197">
          <mxGeometry relative="1" as="geometry">
            <Array as="points">
              <mxPoint x="200" y="1730" />
              <mxPoint x="-210" y="1730" />
            </Array>
          </mxGeometry>
        </mxCell>
        <mxCell id="-sxbTqITBYYLO2gPrFlr-261" value="nein" style="edgeLabel;html=1;align=center;verticalAlign=middle;resizable=0;points=[];" vertex="1" connectable="0" parent="-sxbTqITBYYLO2gPrFlr-259">
          <mxGeometry x="-0.9484" y="2" relative="1" as="geometry">
            <mxPoint x="14" as="offset" />
          </mxGeometry>
        </mxCell>
        <mxCell id="-sxbTqITBYYLO2gPrFlr-267" style="edgeStyle=orthogonalEdgeStyle;rounded=0;orthogonalLoop=1;jettySize=auto;html=1;exitX=0.5;exitY=1;exitDx=0;exitDy=0;entryX=0.5;entryY=0;entryDx=0;entryDy=0;" edge="1" parent="WIyWlLk6GJQsqaUBKTNV-1" source="-sxbTqITBYYLO2gPrFlr-263" target="-sxbTqITBYYLO2gPrFlr-167">
          <mxGeometry relative="1" as="geometry">
            <Array as="points">
              <mxPoint x="300" y="910" />
              <mxPoint x="140" y="910" />
            </Array>
          </mxGeometry>
        </mxCell>
        <mxCell id="-sxbTqITBYYLO2gPrFlr-263" value="Pasch Zähler erhöhen" style="whiteSpace=wrap;html=1;" vertex="1" parent="WIyWlLk6GJQsqaUBKTNV-1">
          <mxGeometry x="240" y="810" width="120" height="60" as="geometry" />
        </mxCell>
        <mxCell id="-sxbTqITBYYLO2gPrFlr-283" value="" style="edgeStyle=orthogonalEdgeStyle;rounded=0;orthogonalLoop=1;jettySize=auto;html=1;" edge="1" parent="WIyWlLk6GJQsqaUBKTNV-1" source="-sxbTqITBYYLO2gPrFlr-268" target="-sxbTqITBYYLO2gPrFlr-282">
          <mxGeometry relative="1" as="geometry" />
        </mxCell>
        <mxCell id="-sxbTqITBYYLO2gPrFlr-294" value="ja" style="edgeLabel;html=1;align=center;verticalAlign=middle;resizable=0;points=[];" vertex="1" connectable="0" parent="-sxbTqITBYYLO2gPrFlr-283">
          <mxGeometry x="0.3" y="1" relative="1" as="geometry">
            <mxPoint x="11" y="5" as="offset" />
          </mxGeometry>
        </mxCell>
        <mxCell id="-sxbTqITBYYLO2gPrFlr-268" value="Pasch gewürfelt?" style="rhombus;whiteSpace=wrap;html=1;" vertex="1" parent="WIyWlLk6GJQsqaUBKTNV-1">
          <mxGeometry x="-420" y="1440" width="80" height="80" as="geometry" />
        </mxCell>
        <mxCell id="-sxbTqITBYYLO2gPrFlr-274" style="edgeStyle=orthogonalEdgeStyle;rounded=0;orthogonalLoop=1;jettySize=auto;html=1;exitX=0.5;exitY=0;exitDx=0;exitDy=0;entryX=0;entryY=0.75;entryDx=0;entryDy=0;" edge="1" parent="WIyWlLk6GJQsqaUBKTNV-1" source="-sxbTqITBYYLO2gPrFlr-270" target="-sxbTqITBYYLO2gPrFlr-163">
          <mxGeometry relative="1" as="geometry">
            <Array as="points">
              <mxPoint x="-615" y="765" />
            </Array>
          </mxGeometry>
        </mxCell>
        <mxCell id="-sxbTqITBYYLO2gPrFlr-275" value="nein" style="edgeLabel;html=1;align=center;verticalAlign=middle;resizable=0;points=[];" vertex="1" connectable="0" parent="-sxbTqITBYYLO2gPrFlr-274">
          <mxGeometry x="-0.755" y="-5" relative="1" as="geometry">
            <mxPoint x="5" y="107" as="offset" />
          </mxGeometry>
        </mxCell>
        <mxCell id="-sxbTqITBYYLO2gPrFlr-278" style="edgeStyle=orthogonalEdgeStyle;rounded=0;orthogonalLoop=1;jettySize=auto;html=1;exitX=0;exitY=0.5;exitDx=0;exitDy=0;entryX=0.5;entryY=1;entryDx=0;entryDy=0;" edge="1" parent="WIyWlLk6GJQsqaUBKTNV-1" source="-sxbTqITBYYLO2gPrFlr-270" target="-sxbTqITBYYLO2gPrFlr-277">
          <mxGeometry relative="1" as="geometry">
            <Array as="points">
              <mxPoint x="-700" y="1475" />
            </Array>
          </mxGeometry>
        </mxCell>
        <mxCell id="-sxbTqITBYYLO2gPrFlr-270" value="Alle Spieler diese Runde dran?" style="rhombus;whiteSpace=wrap;html=1;" vertex="1" parent="WIyWlLk6GJQsqaUBKTNV-1">
          <mxGeometry x="-670" y="1420" width="110" height="110" as="geometry" />
        </mxCell>
        <mxCell id="-sxbTqITBYYLO2gPrFlr-279" style="edgeStyle=orthogonalEdgeStyle;rounded=0;orthogonalLoop=1;jettySize=auto;html=1;exitX=0.5;exitY=0;exitDx=0;exitDy=0;entryX=0;entryY=0.5;entryDx=0;entryDy=0;" edge="1" parent="WIyWlLk6GJQsqaUBKTNV-1" source="-sxbTqITBYYLO2gPrFlr-277" target="-sxbTqITBYYLO2gPrFlr-83">
          <mxGeometry relative="1" as="geometry" />
        </mxCell>
        <mxCell id="-sxbTqITBYYLO2gPrFlr-277" value="Rundencounter erhöhen" style="rounded=0;whiteSpace=wrap;html=1;" vertex="1" parent="WIyWlLk6GJQsqaUBKTNV-1">
          <mxGeometry x="-760" y="1130" width="120" height="60" as="geometry" />
        </mxCell>
        <mxCell id="-sxbTqITBYYLO2gPrFlr-297" value="" style="edgeStyle=orthogonalEdgeStyle;rounded=0;orthogonalLoop=1;jettySize=auto;html=1;" edge="1" parent="WIyWlLk6GJQsqaUBKTNV-1" source="-sxbTqITBYYLO2gPrFlr-282" target="-sxbTqITBYYLO2gPrFlr-296">
          <mxGeometry relative="1" as="geometry" />
        </mxCell>
        <mxCell id="-sxbTqITBYYLO2gPrFlr-282" value="Wie viele hintereinander?" style="rhombus;whiteSpace=wrap;html=1;" vertex="1" parent="WIyWlLk6GJQsqaUBKTNV-1">
          <mxGeometry x="-430" y="1220" width="100" height="120" as="geometry" />
        </mxCell>
        <mxCell id="-sxbTqITBYYLO2gPrFlr-284" value="gehe ins Gefängnis" style="whiteSpace=wrap;html=1;" vertex="1" parent="WIyWlLk6GJQsqaUBKTNV-1">
          <mxGeometry x="-560" y="1310" width="120" height="60" as="geometry" />
        </mxCell>
        <mxCell id="-sxbTqITBYYLO2gPrFlr-286" style="edgeStyle=orthogonalEdgeStyle;rounded=0;orthogonalLoop=1;jettySize=auto;html=1;exitX=0;exitY=0.5;exitDx=0;exitDy=0;entryX=0.435;entryY=0.01;entryDx=0;entryDy=0;entryPerimeter=0;" edge="1" parent="WIyWlLk6GJQsqaUBKTNV-1" source="-sxbTqITBYYLO2gPrFlr-282" target="-sxbTqITBYYLO2gPrFlr-284">
          <mxGeometry relative="1" as="geometry" />
        </mxCell>
        <mxCell id="-sxbTqITBYYLO2gPrFlr-288" value="3" style="edgeLabel;html=1;align=center;verticalAlign=middle;resizable=0;points=[];" vertex="1" connectable="0" parent="-sxbTqITBYYLO2gPrFlr-286">
          <mxGeometry x="-0.4096" y="-5" relative="1" as="geometry">
            <mxPoint y="-5" as="offset" />
          </mxGeometry>
        </mxCell>
        <mxCell id="-sxbTqITBYYLO2gPrFlr-293" style="edgeStyle=orthogonalEdgeStyle;rounded=0;orthogonalLoop=1;jettySize=auto;html=1;exitX=0;exitY=0.5;exitDx=0;exitDy=0;entryX=0.5;entryY=1;entryDx=0;entryDy=0;" edge="1" parent="WIyWlLk6GJQsqaUBKTNV-1" source="-sxbTqITBYYLO2gPrFlr-289" target="-sxbTqITBYYLO2gPrFlr-270">
          <mxGeometry relative="1" as="geometry" />
        </mxCell>
        <mxCell id="-sxbTqITBYYLO2gPrFlr-289" value="Pasch Zähler Reset" style="rounded=0;whiteSpace=wrap;html=1;" vertex="1" parent="WIyWlLk6GJQsqaUBKTNV-1">
          <mxGeometry x="-550" y="1530" width="120" height="60" as="geometry" />
        </mxCell>
        <mxCell id="-sxbTqITBYYLO2gPrFlr-290" style="edgeStyle=orthogonalEdgeStyle;rounded=0;orthogonalLoop=1;jettySize=auto;html=1;exitX=0;exitY=0.5;exitDx=0;exitDy=0;entryX=0.645;entryY=0.05;entryDx=0;entryDy=0;entryPerimeter=0;" edge="1" parent="WIyWlLk6GJQsqaUBKTNV-1" source="-sxbTqITBYYLO2gPrFlr-268" target="-sxbTqITBYYLO2gPrFlr-289">
          <mxGeometry relative="1" as="geometry" />
        </mxCell>
        <mxCell id="-sxbTqITBYYLO2gPrFlr-291" value="nein" style="edgeLabel;html=1;align=center;verticalAlign=middle;resizable=0;points=[];" vertex="1" connectable="0" parent="-sxbTqITBYYLO2gPrFlr-290">
          <mxGeometry x="-0.3371" y="-1" relative="1" as="geometry">
            <mxPoint x="5" y="-9" as="offset" />
          </mxGeometry>
        </mxCell>
        <mxCell id="-sxbTqITBYYLO2gPrFlr-292" style="edgeStyle=orthogonalEdgeStyle;rounded=0;orthogonalLoop=1;jettySize=auto;html=1;exitX=0.5;exitY=1;exitDx=0;exitDy=0;entryX=0.412;entryY=0.023;entryDx=0;entryDy=0;entryPerimeter=0;" edge="1" parent="WIyWlLk6GJQsqaUBKTNV-1" source="-sxbTqITBYYLO2gPrFlr-284" target="-sxbTqITBYYLO2gPrFlr-289">
          <mxGeometry relative="1" as="geometry" />
        </mxCell>
        <mxCell id="-sxbTqITBYYLO2gPrFlr-298" style="edgeStyle=orthogonalEdgeStyle;rounded=0;orthogonalLoop=1;jettySize=auto;html=1;exitX=0.5;exitY=0;exitDx=0;exitDy=0;entryX=0;entryY=0.5;entryDx=0;entryDy=0;" edge="1" parent="WIyWlLk6GJQsqaUBKTNV-1" source="-sxbTqITBYYLO2gPrFlr-296" target="-sxbTqITBYYLO2gPrFlr-165">
          <mxGeometry relative="1" as="geometry" />
        </mxCell>
        <mxCell id="-sxbTqITBYYLO2gPrFlr-296" value="Würfeln" style="whiteSpace=wrap;html=1;" vertex="1" parent="WIyWlLk6GJQsqaUBKTNV-1">
          <mxGeometry x="-440" y="1050" width="120" height="60" as="geometry" />
        </mxCell>
        <mxCell id="-sxbTqITBYYLO2gPrFlr-304" value="Spiel" style="text;html=1;align=center;verticalAlign=middle;resizable=0;points=[];autosize=1;strokeColor=none;fillColor=none;" vertex="1" parent="WIyWlLk6GJQsqaUBKTNV-1">
          <mxGeometry x="-360" y="550" width="50" height="30" as="geometry" />
        </mxCell>
        <mxCell id="-sxbTqITBYYLO2gPrFlr-305" value="Spieler Inventar anzeigen " style="rounded=0;whiteSpace=wrap;html=1;" vertex="1" parent="WIyWlLk6GJQsqaUBKTNV-1">
          <mxGeometry x="920" y="840" width="120" height="60" as="geometry" />
        </mxCell>
        <mxCell id="-sxbTqITBYYLO2gPrFlr-306" value="" style="endArrow=classic;html=1;rounded=0;exitX=0.996;exitY=0.227;exitDx=0;exitDy=0;exitPerimeter=0;entryX=0;entryY=0.5;entryDx=0;entryDy=0;" edge="1" parent="WIyWlLk6GJQsqaUBKTNV-1" source="-sxbTqITBYYLO2gPrFlr-302" target="-sxbTqITBYYLO2gPrFlr-305">
          <mxGeometry width="50" height="50" relative="1" as="geometry">
            <mxPoint x="860" y="880" as="sourcePoint" />
            <mxPoint x="910" y="830" as="targetPoint" />
          </mxGeometry>
        </mxCell>
        <mxCell id="-sxbTqITBYYLO2gPrFlr-307" value="Map anzeigen" style="rounded=0;whiteSpace=wrap;html=1;" vertex="1" parent="WIyWlLk6GJQsqaUBKTNV-1">
          <mxGeometry x="920" y="910" width="120" height="60" as="geometry" />
        </mxCell>
        <mxCell id="-sxbTqITBYYLO2gPrFlr-308" value="" style="endArrow=classic;html=1;rounded=0;exitX=0.996;exitY=0.227;exitDx=0;exitDy=0;exitPerimeter=0;entryX=0;entryY=0.5;entryDx=0;entryDy=0;" edge="1" parent="WIyWlLk6GJQsqaUBKTNV-1" target="-sxbTqITBYYLO2gPrFlr-307">
          <mxGeometry width="50" height="50" relative="1" as="geometry">
            <mxPoint x="823" y="941" as="sourcePoint" />
            <mxPoint x="910" y="900" as="targetPoint" />
          </mxGeometry>
        </mxCell>
        <mxCell id="-sxbTqITBYYLO2gPrFlr-309" value="" style="rounded=0;whiteSpace=wrap;html=1;fillColor=none;strokeWidth=2;strokeColor=light-dark(#000000,#80FF00);" vertex="1" parent="WIyWlLk6GJQsqaUBKTNV-1">
          <mxGeometry x="870" y="800" width="210" height="210" as="geometry" />
        </mxCell>
        <mxCell id="-sxbTqITBYYLO2gPrFlr-310" value="immer möglich" style="text;html=1;align=center;verticalAlign=middle;whiteSpace=wrap;rounded=0;" vertex="1" parent="WIyWlLk6GJQsqaUBKTNV-1">
          <mxGeometry x="930" y="800" width="100" height="30" as="geometry" />
        </mxCell>
        <mxCell id="-sxbTqITBYYLO2gPrFlr-311" value="Highscore anzeigen" style="rounded=0;whiteSpace=wrap;html=1;" vertex="1" parent="WIyWlLk6GJQsqaUBKTNV-1">
          <mxGeometry x="320" y="204.38" width="90" height="31.25" as="geometry" />
        </mxCell>
        <mxCell id="-sxbTqITBYYLO2gPrFlr-315" style="edgeStyle=orthogonalEdgeStyle;rounded=0;orthogonalLoop=1;jettySize=auto;html=1;exitX=0;exitY=0.5;exitDx=0;exitDy=0;entryX=0.193;entryY=1.033;entryDx=0;entryDy=0;entryPerimeter=0;" edge="1" parent="WIyWlLk6GJQsqaUBKTNV-1" source="-sxbTqITBYYLO2gPrFlr-311" target="-sxbTqITBYYLO2gPrFlr-1">
          <mxGeometry relative="1" as="geometry" />
        </mxCell>
        <mxCell id="-sxbTqITBYYLO2gPrFlr-317" value="" style="edgeStyle=orthogonalEdgeStyle;rounded=0;orthogonalLoop=1;jettySize=auto;html=1;exitX=0.5;exitY=1;exitDx=0;exitDy=0;entryX=0;entryY=0.25;entryDx=0;entryDy=0;" edge="1" parent="WIyWlLk6GJQsqaUBKTNV-1" source="-sxbTqITBYYLO2gPrFlr-25" target="-sxbTqITBYYLO2gPrFlr-316">
          <mxGeometry relative="1" as="geometry">
            <mxPoint x="160" y="410" as="sourcePoint" />
            <mxPoint x="280" y="135" as="targetPoint" />
            <Array as="points">
              <mxPoint x="160" y="430" />
              <mxPoint x="30" y="430" />
            </Array>
          </mxGeometry>
        </mxCell>
        <mxCell id="-sxbTqITBYYLO2gPrFlr-318" value="nein" style="edgeLabel;html=1;align=center;verticalAlign=middle;resizable=0;points=[];" vertex="1" connectable="0" parent="-sxbTqITBYYLO2gPrFlr-317">
          <mxGeometry x="-0.7516" y="1" relative="1" as="geometry">
            <mxPoint x="-3" y="-11" as="offset" />
          </mxGeometry>
        </mxCell>
        <mxCell id="-sxbTqITBYYLO2gPrFlr-316" value="" style="rounded=0;whiteSpace=wrap;html=1;fillColor=none;strokeWidth=3;strokeColor=light-dark(#000000,#FF6012);" vertex="1" parent="WIyWlLk6GJQsqaUBKTNV-1">
          <mxGeometry x="20" y="80" width="800" height="470" as="geometry" />
        </mxCell>
        <mxCell id="-sxbTqITBYYLO2gPrFlr-322" style="edgeStyle=orthogonalEdgeStyle;rounded=0;orthogonalLoop=1;jettySize=auto;html=1;exitX=1;exitY=0.5;exitDx=0;exitDy=0;entryX=-0.037;entryY=0.597;entryDx=0;entryDy=0;entryPerimeter=0;" edge="1" parent="WIyWlLk6GJQsqaUBKTNV-1" source="-sxbTqITBYYLO2gPrFlr-90" target="-sxbTqITBYYLO2gPrFlr-96">
          <mxGeometry relative="1" as="geometry" />
        </mxCell>
        <mxCell id="-sxbTqITBYYLO2gPrFlr-324" value="Menü" style="text;html=1;align=center;verticalAlign=middle;whiteSpace=wrap;rounded=0;" vertex="1" parent="WIyWlLk6GJQsqaUBKTNV-1">
          <mxGeometry x="156" y="40" width="60" height="30" as="geometry" />
        </mxCell>
      </root>
    </mxGraphModel>
  </diagram>
</mxfile>
